<svg version="1.1" id="Layer_1" xmlns="http://www.w3.org/2000/svg" xmlns:xlink="http://www.w3.org/1999/xlink" x="0px" y="0px"
	 width="100%" viewBox="150 150 500 500" enable-background="new 0 0 400 400" xml:space="preserve">
<path fill="#000000" opacity="1.000000" stroke="none" 
	d="
M636.214905,400.000732 
	C636.287720,411.486389 636.855774,422.496460 636.331177,433.454285 
	C634.581299,469.999603 624.643311,503.807526 605.234558,535.344482 
	C572.888855,587.902588 527.079590,622.559570 468.948914,641.039124 
	C430.533142,653.251404 391.366302,654.759583 351.624207,645.872925 
	C303.491150,635.110168 262.206055,612.231567 228.121613,577.168640 
	C201.705521,549.994324 181.847839,518.267212 171.817490,481.180206 
	C168.201477,467.809998 166.090195,454.084351 165.934631,440.262115 
	C165.698578,419.287354 164.676865,398.275635 166.708878,377.327271 
	C169.948746,343.926971 179.110245,312.374939 196.254898,283.329041 
	C217.795334,246.835892 246.274002,217.277649 283.636688,196.883514 
	C310.571503,182.181396 339.093750,171.991394 369.654541,167.520935 
	C415.351715,160.836304 459.022614,167.977417 500.631012,187.013000 
	C538.481750,204.329514 569.588562,230.286072 593.509949,264.594116 
	C613.122253,292.722107 626.619080,323.325623 632.517517,357.282257 
	C634.952942,371.303162 636.184387,385.322662 636.214905,400.000732 
M418.311951,602.709412 
	C427.265259,601.877380 436.233398,600.901001 444.968140,598.831604 
	C475.095734,591.694031 502.932098,579.399780 528.455688,561.720398 
	C563.714355,537.297791 588.650879,504.680389 605.770264,465.742310 
	C620.433594,432.390778 623.282532,397.489716 617.585510,361.948761 
	C610.168945,315.680847 590.248047,275.246246 556.530823,242.525436 
	C528.828003,215.641342 496.177429,196.636261 458.440277,187.078049 
	C431.746216,180.316879 404.682007,177.355438 377.239838,180.477325 
	C345.928925,184.039322 316.512909,193.499100 289.247681,209.616760 
	C236.709885,240.674103 201.364410,284.641449 186.836868,344.504578 
	C180.232819,371.717621 178.494766,399.132385 184.183044,426.666412 
	C192.984802,469.271240 213.189041,505.732544 243.949936,536.515930 
	C273.304901,565.892395 308.531006,584.937256 348.160156,596.069580 
	C370.740967,602.412781 393.904297,604.696777 418.311951,602.709412 
M330.386597,623.817932 
	C334.958069,626.361023 339.367065,629.365845 345.217377,629.158447 
	C346.306915,624.255493 345.361206,619.437744 345.750702,614.695374 
	C346.018250,611.438049 344.574768,610.012390 341.497925,609.122192 
	C331.305054,606.173401 321.140228,603.099243 311.472198,598.617737 
	C310.336700,598.091309 309.105194,597.257080 307.370392,598.372620 
	C307.063599,602.561218 306.871826,607.014526 306.368713,611.432373 
	C306.004608,614.629578 307.323700,616.225403 310.179993,617.473877 
	C316.455994,620.217041 322.920654,622.257324 330.386597,623.817932 
M429.886444,615.445312 
	C428.085144,615.740051 426.294159,616.158813 424.480896,616.309875 
	C409.377808,617.568604 409.449432,617.549683 410.273407,632.723633 
	C410.437439,635.744385 411.537964,636.729980 414.486572,636.772644 
	C423.535187,636.903442 432.348724,635.273254 441.164032,633.591492 
	C442.832794,633.273193 444.587097,632.672119 444.624939,630.596924 
	C444.723816,625.172791 444.658234,619.745667 444.658234,614.303528 
	C439.584412,613.636353 435.245117,615.334351 429.886444,615.445312 
M492.781311,597.666992 
	C483.048859,601.537537 473.506317,605.900452 463.497009,609.050720 
	C461.759399,609.597595 460.284637,610.277710 460.417358,612.344299 
	C460.754089,617.588196 461.200348,622.825134 461.629089,628.407532 
	C472.859680,626.263489 482.831268,622.235229 492.668488,617.836182 
	C493.475372,617.475403 494.570740,616.402344 494.531067,615.718323 
	C494.182983,609.712402 496.000610,603.568909 492.781311,597.666992 
M247.799164,558.998230 
	C235.780914,549.819153 226.311783,538.118408 216.443268,526.101440 
	C213.852234,532.843994 213.324890,538.379883 217.446030,543.811646 
	C225.887604,554.937805 234.644073,565.771240 244.878891,575.322998 
	C245.805466,576.187744 246.718948,577.316345 248.961624,576.947083 
	C249.581543,571.188538 250.994034,565.342041 247.799164,558.998230 
M378.473297,635.834412 
	C379.292053,635.965210 380.111145,636.094116 380.929535,636.227051 
	C393.434692,638.257935 393.693604,638.046204 393.852448,625.571838 
	C393.873566,623.913635 393.872528,622.254944 393.864044,620.596619 
	C393.854279,618.687073 393.120300,617.490356 391.002594,617.300415 
	C382.925873,616.575684 374.849243,615.838379 366.786804,614.973267 
	C364.011353,614.675354 363.223389,615.901245 363.365967,618.381409 
	C363.603455,622.512085 364.066803,626.635925 363.465363,630.785828 
	C363.067444,633.531616 364.498322,634.652283 367.179840,634.797913 
	C370.651154,634.986450 374.108734,635.427856 378.473297,635.834412 
M576.938110,553.406311 
	C582.112122,547.343323 582.614441,540.413940 580.995544,532.691711 
	C578.675720,533.608154 577.534241,535.281433 576.266785,536.752991 
	C570.622986,543.305664 564.879395,549.865295 558.129456,555.205505 
	C550.052063,561.596069 552.688232,569.692383 552.364441,578.417786 
	C561.774353,570.567993 569.766785,562.893188 576.938110,553.406311 
M273.665497,577.856018 
	C271.137390,576.157715 268.609314,574.459351 265.561066,572.411621 
	C265.121063,578.552673 264.746735,583.668396 264.394592,588.785706 
	C264.325806,589.785828 264.287048,590.870483 265.147583,591.563232 
	C272.490997,597.475403 280.283051,602.645264 289.226013,606.658997 
	C290.508484,602.100830 290.406860,598.134460 290.704193,594.193787 
	C290.988617,590.423889 289.807281,588.049377 286.340759,586.191650 
	C282.111755,583.925415 278.266846,580.942383 273.665497,577.856018 
M524.355835,580.889282 
	C522.006165,582.465820 519.779358,584.281738 517.278809,585.564026 
	C513.293762,587.607605 510.494080,589.975098 511.174713,595.113464 
	C511.693451,599.029297 509.007202,603.121094 511.609192,607.488647 
	C519.922852,602.815247 528.305725,598.759216 535.116333,592.226746 
	C535.932617,591.443787 537.077698,590.381531 537.067017,589.460266 
	C537.001343,583.800293 536.647034,578.143616 536.360901,571.874939 
	C532.330933,575.395874 528.827881,578.194519 524.355835,580.889282 
M594.328979,518.598022 
	C594.384583,521.017090 594.243591,523.481995 595.809021,525.702148 
	C604.707336,513.519653 614.693298,489.815369 613.969604,481.533783 
	C609.079163,492.052948 602.736328,500.747223 597.285950,509.985474 
	C595.866638,512.391357 594.258789,514.788879 594.328979,518.598022 
M202.779068,518.407104 
	C204.564713,512.843628 203.159470,508.152405 199.502594,503.642181 
	C197.129028,500.714722 195.582336,497.114105 193.686356,493.802948 
	C191.845901,490.588745 190.032532,487.359009 187.780609,483.382782 
	C187.429947,484.908539 187.194153,485.373962 187.241928,485.808258 
	C188.649445,498.606781 195.679657,509.042053 201.726654,519.868713 
	C202.249786,520.805359 202.569458,519.546143 202.779068,518.407104 
z"/>
<path fill="#000000" opacity="1.000000" stroke="none" 
	d="
M565.492004,297.572327 
	C575.987061,314.258881 582.999329,332.052429 587.458740,350.770477 
	C592.991516,373.993866 593.842285,397.455658 589.910034,421.116089 
	C584.570740,453.242340 569.741882,480.579498 549.497498,505.662415 
	C517.943176,544.758362 476.417816,565.928528 427.792572,573.916931 
	C391.152374,579.936218 355.751068,573.585144 322.050507,558.568176 
	C269.402435,535.108276 233.800003,495.785248 216.134567,440.908813 
	C208.180634,416.200531 206.713028,390.710327 211.132034,364.927338 
	C219.387085,316.762390 243.091187,277.654480 281.212677,247.686493 
	C305.714691,228.425003 333.759094,216.009109 364.541473,209.633530 
	C394.398651,203.449539 423.964478,204.450546 452.932587,212.894302 
	C500.778412,226.840591 538.976929,254.314407 565.492004,297.572327 
M230.463837,438.060608 
	C231.396606,441.078857 232.254822,444.122528 233.275024,447.110931 
	C237.734573,460.173889 245.455551,471.401520 252.788223,482.951263 
	C261.747375,497.062866 272.512390,509.542023 285.412720,519.815979 
	C313.630737,542.288940 345.669769,556.022217 381.878876,559.603394 
	C398.898438,561.286682 415.820374,561.330322 432.590485,558.083313 
	C463.828339,552.035095 492.474640,540.107117 516.839355,519.148560 
	C532.082336,506.036560 545.209778,491.063019 555.537109,473.730530 
	C568.389648,452.160065 575.169067,428.793335 577.090454,403.786255 
	C578.946228,379.633087 575.601013,356.290771 567.471497,333.609314 
	C560.824341,315.063660 550.253906,298.837585 537.744263,283.661560 
	C510.687225,250.837402 475.446808,231.589798 434.455627,223.726654 
	C399.685883,217.056931 365.167938,220.219345 332.266266,234.838776 
	C302.553864,248.041092 276.628174,266.021729 257.129486,292.561646 
	C234.597412,323.230347 222.801910,357.386078 223.477737,395.514221 
	C223.728821,409.679688 226.350922,423.617828 230.463837,438.060608 
z"/>
<path fill="#000000" opacity="1.000000" stroke="none" 
	d="
M526.644409,368.482300 
	C524.825317,370.231995 523.388794,371.905334 521.636658,373.125488 
	C503.876801,385.493347 486.131409,397.884766 468.209778,410.015167 
	C464.833557,412.300385 464.091980,414.179321 465.457275,418.114105 
	C472.272766,437.756531 478.719788,457.526794 485.312256,477.246735 
	C489.684662,490.325897 481.640869,500.999146 467.903290,500.386383 
	C465.476898,500.278168 463.425903,499.442444 461.392426,498.172394 
	C442.178101,486.171692 422.719452,474.548645 404.202515,461.470795 
	C401.681274,459.690186 400.086517,460.007355 397.641266,461.567169 
	C378.554657,473.742004 359.399048,485.810577 340.165894,497.752777 
	C332.400269,502.574585 326.249054,502.440613 320.756989,497.939331 
	C315.567139,493.685760 313.319611,485.003845 315.720795,477.776031 
	C321.597504,460.086761 327.696747,442.470184 333.427460,424.734192 
	C336.983917,413.727325 336.767731,413.635651 327.274658,406.906158 
	C312.330811,396.312714 297.357635,385.760590 282.420624,375.157562 
	C278.707428,372.521729 275.630066,369.371735 273.811188,365.022583 
	C268.964661,353.434113 276.648834,341.761749 289.223816,341.767517 
	C312.222046,341.778076 335.220947,341.687378 358.217865,341.862823 
	C362.191956,341.893097 363.909180,340.716339 365.308563,336.820374 
	C372.400024,317.077576 379.281921,297.267090 385.924927,277.369659 
	C388.290344,270.284607 394.028534,267.412872 400.927704,266.882172 
	C407.424591,266.382477 412.568298,269.152130 416.003540,274.809906 
	C419.360565,280.338837 419.831116,286.826538 421.919525,292.785522 
	C427.196014,307.841278 432.290039,322.962982 437.251251,338.125671 
	C438.353607,341.494781 440.529419,341.722046 443.380859,341.728851 
	C461.212769,341.771484 479.044922,341.857025 496.876068,342.025055 
	C503.368591,342.086212 509.865662,342.285034 516.348267,342.644745 
	C528.780762,343.334595 534.185852,356.538269 526.644409,368.482300 
M470.402771,483.508667 
	C471.297333,480.630219 470.563324,477.948303 469.548096,475.241760 
	C462.235779,455.747528 455.648407,436.002716 449.374268,416.155090 
	C446.929840,408.422302 447.289642,407.229614 453.861450,402.805511 
	C465.467377,394.992432 476.260742,386.040619 488.166626,378.645508 
	C494.672546,374.604492 501.040955,370.318573 507.252625,365.839691 
	C509.529724,364.197815 513.386963,362.572968 512.286560,359.150543 
	C511.088104,355.423035 507.068604,357.294037 504.341583,357.282349 
	C482.510773,357.188965 460.679077,357.287415 438.847687,357.346527 
	C432.920288,357.362579 428.001984,355.892822 425.807983,349.551422 
	C419.220367,330.510895 412.570221,311.491821 405.883881,292.485718 
	C404.781677,289.352661 405.123077,284.140991 401.048645,284.206207 
	C397.400513,284.264557 396.943359,289.342468 395.824371,292.507812 
	C390.166992,308.510864 384.753204,324.599762 379.160339,340.625916 
	C373.494049,356.862518 373.264465,357.112488 356.257111,357.208832 
	C336.093445,357.323059 315.928223,357.145294 295.763885,357.185852 
	C293.606628,357.190186 290.551025,356.109619 289.719513,359.136780 
	C288.985199,361.810059 291.652832,363.142426 293.447845,364.503998 
	C298.490051,368.328735 303.561646,372.122833 308.749420,375.746033 
	C321.448761,384.615265 334.223328,393.376801 346.961060,402.191132 
	C353.856079,406.962341 354.225067,408.379608 351.316833,416.328339 
	C349.087067,422.422760 347.036011,428.582794 344.921906,434.719299 
	C340.423126,447.777802 335.772614,460.787964 331.558807,473.937897 
	C330.527313,477.156799 328.191162,481.505676 331.926575,484.097290 
	C335.416870,486.518829 338.467194,482.803192 341.258575,481.072174 
	C359.381775,469.833557 377.217560,458.143616 394.746765,445.996948 
	C398.347717,443.501831 401.735626,443.220490 405.384338,445.625916 
	C407.470245,447.001099 409.609833,448.294586 411.710236,449.648102 
	C429.213806,460.927368 446.965729,471.828949 463.888458,483.991882 
	C465.844330,485.397644 467.898010,486.701996 470.402771,483.508667 
z"/>
<path fill="#000000" opacity="1.000000" stroke="none" 
	d="
M272.501587,456.613617 
	C267.135956,452.364594 265.766693,448.751648 267.709259,444.607330 
	C270.070953,439.568817 275.007935,437.139465 279.341827,438.883270 
	C284.022461,440.766602 286.985321,445.513824 285.856049,449.320709 
	C284.155518,455.053406 278.718903,458.173706 272.501587,456.613617 
z"/>
<path fill="#000000" opacity="1.000000" stroke="none" 
	d="
M488.334839,289.927490 
	C491.798584,296.562897 490.082184,302.199493 483.949158,305.356201 
	C479.650024,307.569000 474.680267,304.702362 473.072662,299.082489 
	C471.882324,294.921143 474.517639,289.727142 479.086395,286.997284 
	C483.077209,284.612762 485.626495,286.940125 488.334839,289.927490 
z"/>
<path fill="#000000" opacity="1.000000" stroke="none" 
	d="
M481.687744,507.956207 
	C483.131226,507.844696 484.285645,507.307312 485.480835,508.486237 
	C485.202728,511.052460 483.420197,511.804260 481.116302,511.847076 
	C479.926331,511.869232 478.650848,511.593475 478.591461,510.130188 
	C478.518921,508.343414 480.056519,508.249359 481.687744,507.956207 
z"/>
</svg>